<svg width="153" height="27" viewBox="0 0 153 27" fill="none" xmlns="http://www.w3.org/2000/svg">
<g id="Webbwe">
<path d="M10.654 3.424C11.2087 3.424 11.678 3.616 12.062 4C12.446 4.384 12.638 4.85333 12.638 5.408V17.248L15.198 14.688C15.6887 14.176 16.2647 13.792 16.926 13.536C17.5873 13.2587 18.2807 13.12 19.006 13.12C20.4993 13.12 21.7687 13.6427 22.814 14.688L25.406 17.28V5.408C25.406 4.85333 25.5873 4.384 25.95 4C26.334 3.616 26.8033 3.424 27.358 3.424C27.9127 3.424 28.382 3.616 28.766 4C29.15 4.384 29.342 4.85333 29.342 5.408V22.016C29.342 22.5707 29.15 23.04 28.766 23.424C28.382 23.808 27.9127 24 27.358 24C26.974 24 26.6113 23.8827 26.27 23.648L26.238 23.68L25.982 23.456L20.286 17.728C19.902 17.3867 19.4753 17.216 19.006 17.216C18.494 17.216 18.0567 17.3973 17.694 17.76L11.806 23.68V23.648C11.4433 23.8827 11.0593 24 10.654 24C10.0993 24 9.63 23.808 9.246 23.424C8.862 23.04 8.67 22.5707 8.67 22.016V5.408C8.67 4.85333 8.862 4.384 9.246 4C9.63 3.616 10.0993 3.424 10.654 3.424ZM103.935 3.424C104.49 3.424 104.959 3.616 105.343 4C105.727 4.384 105.919 4.85333 105.919 5.408V17.248L108.479 14.688C108.97 14.176 109.546 13.792 110.207 13.536C110.869 13.2587 111.562 13.12 112.287 13.12C113.781 13.12 115.05 13.6427 116.095 14.688L118.687 17.28V5.408C118.687 4.85333 118.869 4.384 119.231 4C119.615 3.616 120.085 3.424 120.639 3.424C121.194 3.424 121.663 3.616 122.047 4C122.431 4.384 122.623 4.85333 122.623 5.408V22.016C122.623 22.5707 122.431 23.04 122.047 23.424C121.663 23.808 121.194 24 120.639 24C120.255 24 119.893 23.8827 119.551 23.648L119.519 23.68L119.263 23.456L113.567 17.728C113.183 17.3867 112.757 17.216 112.287 17.216C111.775 17.216 111.338 17.3973 110.975 17.76L105.087 23.68V23.648C104.725 23.8827 104.341 24 103.935 24C103.381 24 102.911 23.808 102.527 23.424C102.143 23.04 101.951 22.5707 101.951 22.016V5.408C101.951 4.85333 102.143 4.384 102.527 4C102.911 3.616 103.381 3.424 103.935 3.424Z" fill="#00D037"/>
<path d="M52.5933 13.728C52.5719 14.2827 52.3586 14.752 51.9533 15.136C51.5693 15.52 51.0999 15.7227 50.5453 15.744H36.3053C36.3906 16 36.5079 16.2667 36.6573 16.544C36.7639 16.7573 36.8706 16.96 36.9773 17.152C37.0839 17.344 37.1906 17.536 37.2973 17.728C37.1906 17.5573 37.0946 17.3973 37.0093 17.248C36.9239 17.0773 36.8386 16.9067 36.7533 16.736C37.0946 17.3547 37.5319 17.9093 38.0653 18.4C38.5986 18.8907 39.1959 19.2747 39.8573 19.552C40.5613 19.8507 41.3399 20.0213 42.1933 20.064H42.3213C42.8759 20.064 43.3346 20.256 43.6973 20.64C44.0813 21.0027 44.2733 21.4613 44.2733 22.016C44.2733 22.5707 44.0813 23.04 43.6973 23.424C43.3346 23.808 42.8759 24 42.3213 24C42.1933 24 42.0653 24 41.9373 24C41.8306 24 41.7239 23.9893 41.6173 23.968C40.7213 23.904 39.8466 23.7227 38.9933 23.424C38.1399 23.1253 37.3399 22.7413 36.5933 22.272C35.8679 21.7813 35.2066 21.2053 34.6093 20.544C34.0119 19.8827 33.5106 19.1467 33.1053 18.336C32.3159 16.736 31.9533 15.0507 32.0173 13.28C32.1026 11.488 32.6146 9.83467 33.5533 8.32C33.6386 8.192 33.7239 8.064 33.8093 7.936C33.9159 7.78667 34.0226 7.648 34.1293 7.52C34.9186 6.45333 35.8786 5.58933 37.0093 4.928C38.1399 4.24533 39.3453 3.78667 40.6253 3.552C42.2679 3.296 43.8893 3.424 45.4893 3.936C47.0893 4.448 48.4653 5.30133 49.6173 6.496C50.5559 7.456 51.2813 8.544 51.7933 9.76C52.3266 10.976 52.5933 12.256 52.5933 13.6V13.664V13.728ZM38.9293 8.352C38.3106 8.75733 37.7773 9.25867 37.3293 9.856C36.8813 10.432 36.5399 11.0613 36.3053 11.744H48.3373C48.2306 11.424 48.0813 11.0827 47.8893 10.72C47.4839 9.952 46.9293 9.30133 46.2253 8.768C45.5426 8.21333 44.7746 7.81867 43.9213 7.584C43.0893 7.34933 42.2359 7.30667 41.3613 7.456C40.4866 7.584 39.6759 7.88267 38.9293 8.352ZM145.875 13.728C145.853 14.2827 145.64 14.752 145.235 15.136C144.851 15.52 144.381 15.7227 143.827 15.744H129.587C129.672 16 129.789 16.2667 129.939 16.544C130.045 16.7573 130.152 16.96 130.259 17.152C130.365 17.344 130.472 17.536 130.579 17.728C130.472 17.5573 130.376 17.3973 130.291 17.248C130.205 17.0773 130.12 16.9067 130.035 16.736C130.376 17.3547 130.813 17.9093 131.347 18.4C131.88 18.8907 132.477 19.2747 133.139 19.552C133.843 19.8507 134.621 20.0213 135.475 20.064H135.603C136.157 20.064 136.616 20.256 136.979 20.64C137.363 21.0027 137.555 21.4613 137.555 22.016C137.555 22.5707 137.363 23.04 136.979 23.424C136.616 23.808 136.157 24 135.603 24C135.475 24 135.347 24 135.219 24C135.112 24 135.005 23.9893 134.899 23.968C134.003 23.904 133.128 23.7227 132.275 23.424C131.421 23.1253 130.621 22.7413 129.875 22.272C129.149 21.7813 128.488 21.2053 127.891 20.544C127.293 19.8827 126.792 19.1467 126.387 18.336C125.597 16.736 125.235 15.0507 125.299 13.28C125.384 11.488 125.896 9.83467 126.835 8.32C126.92 8.192 127.005 8.064 127.091 7.936C127.197 7.78667 127.304 7.648 127.411 7.52C128.2 6.45333 129.16 5.58933 130.291 4.928C131.421 4.24533 132.627 3.78667 133.907 3.552C135.549 3.296 137.171 3.424 138.771 3.936C140.371 4.448 141.747 5.30133 142.899 6.496C143.837 7.456 144.563 8.544 145.075 9.76C145.608 10.976 145.875 12.256 145.875 13.6V13.664V13.728ZM132.211 8.352C131.592 8.75733 131.059 9.25867 130.611 9.856C130.163 10.432 129.821 11.0613 129.587 11.744H141.619C141.512 11.424 141.363 11.0827 141.171 10.72C140.765 9.952 140.211 9.30133 139.507 8.768C138.824 8.21333 138.056 7.81867 137.203 7.584C136.371 7.34933 135.517 7.30667 134.643 7.456C133.768 7.584 132.957 7.88267 132.211 8.352Z" fill="#007FFF"/>
<path d="M75.1448 13.472C75.1661 14.3467 75.0701 15.2 74.8568 16.032C74.6648 16.864 74.3768 17.664 73.9928 18.432C73.6088 19.1787 73.1288 19.8827 72.5528 20.544C71.9981 21.184 71.3581 21.7493 70.6328 22.24C69.1181 23.264 67.4541 23.8507 65.6408 24C63.8274 24.128 62.0994 23.808 60.4568 23.04C59.6674 22.656 58.9314 22.1867 58.2488 21.632C57.5874 21.056 57.0008 20.416 56.4888 19.712C55.9981 19.008 55.5821 18.2507 55.2408 17.44C54.9208 16.608 54.7181 15.7547 54.6328 14.88C54.6114 14.7093 54.5901 14.5493 54.5688 14.4C54.5688 14.2293 54.5688 14.0587 54.5688 13.888V13.472V0.351999C54.5688 -0.202668 54.7608 -0.672002 55.1448 -1.056C55.5288 -1.44 55.9981 -1.632 56.5528 -1.632C57.1074 -1.632 57.5768 -1.44 57.9608 -1.056C58.3448 -0.672002 58.5368 -0.202668 58.5368 0.351999V5.632V5.6C59.6248 4.78933 60.8194 4.20267 62.1208 3.84C63.4434 3.456 64.7874 3.34933 66.1528 3.52C67.4968 3.69067 68.7661 4.11733 69.9608 4.8C71.1554 5.46133 72.1688 6.336 73.0008 7.424C73.6621 8.29867 74.1741 9.25867 74.5368 10.304C74.8994 11.328 75.1021 12.384 75.1448 13.472ZM70.0568 17.344C70.9101 16.1493 71.2834 14.8053 71.1768 13.312C71.1341 12.5227 70.9421 11.776 70.6007 11.072C70.2594 10.3467 69.8114 9.70667 69.2568 9.152C68.9794 8.896 68.6808 8.672 68.3608 8.48C68.0621 8.288 67.7421 8.10667 67.4008 7.936C66.5901 7.57333 65.7474 7.392 64.8728 7.392C63.9981 7.392 63.1554 7.56267 62.3448 7.904C61.5341 8.26667 60.8301 8.768 60.2328 9.408C59.6354 10.048 59.1874 10.7733 58.8888 11.584C58.5048 12.672 58.4194 13.7813 58.6328 14.912C58.8674 16.0427 59.3581 17.0453 60.1048 17.92C60.6808 18.6027 61.3634 19.1147 62.1528 19.456C62.3448 19.5627 62.5368 19.6587 62.7288 19.744C62.9421 19.8293 63.1554 19.9147 63.3688 20C63.1981 19.936 63.0274 19.872 62.8568 19.808C62.6861 19.7227 62.5154 19.6373 62.3448 19.552C63.6888 20.1493 65.0754 20.2453 66.5048 19.84C67.2301 19.648 67.8914 19.3387 68.4888 18.912C69.1074 18.4853 69.6301 17.9627 70.0568 17.344Z" fill="#FCB900"/>
<path d="M98.676 13.472C98.6973 14.3467 98.6013 15.2 98.388 16.032C98.196 16.864 97.908 17.664 97.524 18.432C97.14 19.1787 96.66 19.8827 96.084 20.544C95.5293 21.184 94.8893 21.7493 94.164 22.24C92.6493 23.264 90.9853 23.8507 89.172 24C87.3587 24.128 85.6307 23.808 83.988 23.04C83.1987 22.656 82.4627 22.1867 81.78 21.632C81.1187 21.056 80.532 20.416 80.02 19.712C79.5293 19.008 79.1133 18.2507 78.772 17.44C78.452 16.608 78.2493 15.7547 78.164 14.88C78.1427 14.7093 78.1213 14.5493 78.1 14.4C78.1 14.2293 78.1 14.0587 78.1 13.888V13.472V0.351999C78.1 -0.202668 78.292 -0.672002 78.676 -1.056C79.06 -1.44 79.5293 -1.632 80.084 -1.632C80.6387 -1.632 81.108 -1.44 81.492 -1.056C81.876 -0.672002 82.068 -0.202668 82.068 0.351999V5.632V5.6C83.156 4.78933 84.3507 4.20267 85.652 3.84C86.9747 3.456 88.3187 3.34933 89.684 3.52C91.028 3.69067 92.2973 4.11733 93.492 4.8C94.6867 5.46133 95.7 6.336 96.532 7.424C97.1933 8.29867 97.7053 9.25867 98.068 10.304C98.4307 11.328 98.6333 12.384 98.676 13.472ZM93.588 17.344C94.4413 16.1493 94.8147 14.8053 94.708 13.312C94.6653 12.5227 94.4733 11.776 94.132 11.072C93.7907 10.3467 93.3427 9.70667 92.788 9.152C92.5107 8.896 92.212 8.672 91.892 8.48C91.5933 8.288 91.2733 8.10667 90.932 7.936C90.1213 7.57333 89.2787 7.392 88.404 7.392C87.5293 7.392 86.6867 7.56267 85.876 7.904C85.0653 8.26667 84.3613 8.768 83.764 9.408C83.1667 10.048 82.7187 10.7733 82.42 11.584C82.036 12.672 81.9507 13.7813 82.164 14.912C82.3987 16.0427 82.8893 17.0453 83.636 17.92C84.212 18.6027 84.8947 19.1147 85.684 19.456C85.876 19.5627 86.068 19.6587 86.26 19.744C86.4733 19.8293 86.6867 19.9147 86.9 20C86.7293 19.936 86.5587 19.872 86.388 19.808C86.2173 19.7227 86.0467 19.6373 85.876 19.552C87.22 20.1493 88.6067 20.2453 90.036 19.84C90.7613 19.648 91.4227 19.3387 92.02 18.912C92.6387 18.4853 93.1613 17.9627 93.588 17.344Z" fill="#C32525"/>
</g>
</svg>
