<svg width="40" height="40" viewBox="0 0 40 40" fill="none" xmlns="http://www.w3.org/2000/svg">
<g id="Group 8726">
<g id="layer1">
<g id="g926">
<g id="g1349">
<path id="path1659" d="M13.2781 9.74833C14.3454 9.71973 15.1168 8.6694 14.9503 7.62943C15.0633 4.7887 17.9386 2.48374 20.7364 3.00784C23.2429 3.32832 25.1537 5.75917 25.0149 8.25765C25.1416 9.65065 27.1571 10.2451 27.9881 9.09167C29.0673 7.93416 30.3016 6.90396 31.2866 5.66877C31.963 4.5307 31.1892 3.10925 30.0238 2.68497C23.6734 -1.07667 15.213 -0.879093 9.0836 3.24858C8.05082 4.07484 8.23957 5.7488 9.28818 6.47915C10.3908 7.48985 11.3444 8.68667 12.5351 9.58812C12.7663 9.70207 13.0201 9.76091 13.2781 9.74833V9.74833Z" fill="#00D037"/>
<path id="path1655" d="M19.9803 11.9596C22.4402 12.0282 24.4868 9.46209 23.8445 7.08133C23.3765 4.66338 20.4061 3.24165 18.229 4.4002C15.9211 5.41602 15.2401 8.75514 16.9732 10.5899C17.7139 11.4572 18.843 11.9569 19.9803 11.9596V11.9596Z" fill="#00D037"/>
<path id="path1651" d="M32.0278 23.9397C34.493 24.0163 36.5329 21.4427 35.8922 19.0612C35.4164 16.6014 32.3551 15.1933 30.1762 16.4328C27.9392 17.5043 27.3173 20.7685 29.0219 22.5763C29.7661 23.4381 30.8885 23.9507 32.0278 23.9397V23.9397Z" fill="#C32525"/>
<path id="path1647" d="M7.98199 24.0066C10.404 24.07 12.4236 21.5989 11.8798 19.2386C11.4692 16.8727 8.69244 15.3632 6.48758 16.3303C4.1572 17.1787 3.22336 20.3652 4.73611 22.3337C5.46488 23.3779 6.71316 24.004 7.98199 24.0066V24.0066Z" fill="#FCB900"/>
<path id="path1643" d="M35.378 31.5264C36.9187 31.4546 37.408 29.7525 38.0399 28.6296C41.0545 22.4548 40.5768 14.674 36.6721 9.00189C35.7822 8.00131 34.1503 8.32075 33.4356 9.36552C32.4509 10.4414 31.281 11.3692 30.4052 12.5328C29.8028 13.7151 30.9706 15.1911 32.264 14.9399C35.1031 14.9946 37.4634 17.8209 37.001 20.6217C36.7363 23.1743 34.2751 25.1583 31.7356 25.0117C30.3435 25.1382 29.7457 27.1541 30.9018 27.9851C32.0592 29.0638 33.0892 30.2978 34.3243 31.2822C34.6459 31.4605 35.0119 31.5368 35.378 31.5264V31.5264Z" fill="#C32525"/>
<path id="path1639" d="M4.67632 31.6051C6.12275 31.6331 6.84495 30.1461 7.83632 29.3386C8.54071 28.4614 9.9562 27.7749 9.7185 26.4552C9.53777 25.5069 8.57661 24.8928 7.62714 25.0479C4.83234 24.9182 2.53272 22.1397 2.99043 19.3679C3.258 16.8174 5.71625 14.8314 8.25586 14.9779C9.64815 14.8525 10.245 12.8384 9.09095 12.0057C7.93402 10.9253 6.90678 9.68767 5.66689 8.70728C4.52368 8.03216 3.10653 8.80986 2.67984 9.97638C-1.0806 16.325 -0.875978 24.7789 3.24649 30.907C3.60039 31.3222 4.13188 31.5799 4.67632 31.6051V31.6051Z" fill="#FCB900"/>
<path id="path1635" d="M20.0253 35.9943C22.4917 36.074 24.5302 33.4969 23.8949 31.1165C23.418 28.7031 20.4592 27.2812 18.2823 28.4367C16.0275 29.4316 15.3105 32.6368 16.9116 34.5059C17.6607 35.4338 18.8289 36.0059 20.0253 35.9943Z" fill="#007FFF"/>
<path id="path1631" d="M19.5931 39.9983C23.6011 40.0499 27.6846 38.9568 30.9869 36.6607C31.9913 35.7739 31.6654 34.1397 30.6208 33.4291C29.5469 32.4427 28.6154 31.2784 27.4545 30.4C26.2705 29.8006 24.8008 30.9674 25.0473 32.2585C24.9899 35.0956 22.1695 37.4596 19.3644 36.9947C16.817 36.7281 14.8185 34.2702 14.9806 31.7301C14.8435 30.3389 12.835 29.7418 12.0004 30.8958C10.9213 32.0533 9.687 33.0834 8.70205 34.3185C8.05717 35.4153 8.74243 36.8144 9.87287 37.2466C12.8056 38.9818 16.1899 39.9157 19.5931 39.9983Z" fill="#007FFF"/>
</g>
</g>
</g>
</g>
</svg>
